# xmcd
#
# Track frame offsets:
#	182
#	24105
#	48607
#	68945
#	91332
#	116125
#	133927
#	152625
#	171820
#	192050
#
# Disc length: 2788 seconds
#
# Revision: 1
# Processed by: cddbd v1.5.2PL0 Copyright (c) Steve Scherf et al.
# Submitted via: audiograbber 1.83.01
#
DISCID=830ae20a
DTITLE=Los Hijos De Puerto Rico - Oro Merenguero 20 Exitos [CD 1)
DYEAR=1996
DGENRE=Merengue
TTITLE0=Separados
TTITLE1=Gozon Y Buena Vida
TTITLE2=Una Vez A La Semana
TTITLE3=Lloraras
TTITLE4=Amor De Novela
TTITLE5=Vendiendo Tela
TTITLE6=La Morena
TTITLE7=La Cortina
TTITLE8=Pensabas En El
TTITLE9=Que Un Rayo Me Parta
EXTD=
EXTT0=
EXTT1=
EXTT2=
EXTT3=
EXTT4=
EXTT5=
EXTT6=
EXTT7=
EXTT8=
EXTT9=
PLAYORDER=
